<mxfile host="app.diagrams.net" modified="2021-08-27T05:45:17.137Z" agent="5.0 (Macintosh; Intel Mac OS X 10_16_0) AppleWebKit/537.36 (KHTML, like Gecko) Chrome/81.0.4044.138 Safari/537.36" etag="_iQJk6p6WrnpjAPly3wf" version="14.9.3" type="github">
  <diagram id="LR0RCxkH68ZpJCAaFkyw" name="Page-1">
    <mxGraphModel dx="2092" dy="841" grid="1" gridSize="10" guides="1" tooltips="1" connect="1" arrows="1" fold="1" page="1" pageScale="1" pageWidth="827" pageHeight="1169" math="0" shadow="0">
      <root>
        <mxCell id="0" />
        <mxCell id="1" parent="0" />
        <mxCell id="p_a_ilSG1iNqK-UMnlgY-5" value="轻空间服务" style="shape=umlLifeline;perimeter=lifelinePerimeter;container=1;collapsible=0;recursiveResize=0;rounded=0;shadow=0;strokeWidth=1;fillColor=#d5e8d4;strokeColor=#82b366;" vertex="1" parent="1">
          <mxGeometry x="298" y="80" width="110" height="840" as="geometry" />
        </mxCell>
        <mxCell id="p_a_ilSG1iNqK-UMnlgY-6" value="" style="points=[];perimeter=orthogonalPerimeter;rounded=0;shadow=0;strokeWidth=1;" vertex="1" parent="p_a_ilSG1iNqK-UMnlgY-5">
          <mxGeometry x="49" y="80" width="10" height="700" as="geometry" />
        </mxCell>
        <mxCell id="p_a_ilSG1iNqK-UMnlgY-7" value="DB" style="shape=umlLifeline;perimeter=lifelinePerimeter;container=1;collapsible=0;recursiveResize=0;rounded=0;shadow=0;strokeWidth=1;fillColor=#d5e8d4;strokeColor=#82b366;" vertex="1" parent="1">
          <mxGeometry x="470" y="80" width="100" height="840" as="geometry" />
        </mxCell>
        <mxCell id="p_a_ilSG1iNqK-UMnlgY-8" value="" style="points=[];perimeter=orthogonalPerimeter;rounded=0;shadow=0;strokeWidth=1;" vertex="1" parent="p_a_ilSG1iNqK-UMnlgY-7">
          <mxGeometry x="45" y="80" width="10" height="690" as="geometry" />
        </mxCell>
        <mxCell id="p_a_ilSG1iNqK-UMnlgY-14" value="login url" style="verticalAlign=bottom;endArrow=block;shadow=0;strokeWidth=1;entryX=0;entryY=0.117;entryDx=0;entryDy=0;entryPerimeter=0;" edge="1" parent="1" target="p_a_ilSG1iNqK-UMnlgY-6">
          <mxGeometry x="-0.0386" y="11" relative="1" as="geometry">
            <mxPoint x="160" y="240.00000000000068" as="sourcePoint" />
            <mxPoint x="539.5" y="240.00000000000068" as="targetPoint" />
            <mxPoint as="offset" />
          </mxGeometry>
        </mxCell>
        <mxCell id="p_a_ilSG1iNqK-UMnlgY-15" value="IDaaS" style="shape=umlLifeline;perimeter=lifelinePerimeter;container=1;collapsible=0;recursiveResize=0;rounded=0;shadow=0;strokeWidth=1;fillColor=#dae8fc;strokeColor=#6c8ebf;" vertex="1" parent="1">
          <mxGeometry x="630" y="80" width="100" height="840" as="geometry" />
        </mxCell>
        <mxCell id="p_a_ilSG1iNqK-UMnlgY-16" value="" style="points=[];perimeter=orthogonalPerimeter;rounded=0;shadow=0;strokeWidth=1;" vertex="1" parent="p_a_ilSG1iNqK-UMnlgY-15">
          <mxGeometry x="45" y="90" width="10" height="680" as="geometry" />
        </mxCell>
        <mxCell id="p_a_ilSG1iNqK-UMnlgY-18" value="企业员工" style="shape=umlActor;verticalLabelPosition=bottom;verticalAlign=top;html=1;outlineConnect=0;" vertex="1" parent="1">
          <mxGeometry x="-50" y="70" width="30" height="60" as="geometry" />
        </mxCell>
        <mxCell id="p_a_ilSG1iNqK-UMnlgY-19" value="" style="endArrow=none;dashed=1;html=1;" edge="1" parent="1">
          <mxGeometry width="50" height="50" relative="1" as="geometry">
            <mxPoint x="-35" y="910" as="sourcePoint" />
            <mxPoint x="-35.5" y="150" as="targetPoint" />
          </mxGeometry>
        </mxCell>
        <mxCell id="p_a_ilSG1iNqK-UMnlgY-21" value="浏览器（无影）" style="shape=umlLifeline;perimeter=lifelinePerimeter;container=1;collapsible=0;recursiveResize=0;rounded=0;shadow=0;strokeWidth=1;" vertex="1" parent="1">
          <mxGeometry x="100" y="80" width="100" height="830" as="geometry" />
        </mxCell>
        <mxCell id="p_a_ilSG1iNqK-UMnlgY-22" value="" style="points=[];perimeter=orthogonalPerimeter;rounded=0;shadow=0;strokeWidth=1;" vertex="1" parent="p_a_ilSG1iNqK-UMnlgY-21">
          <mxGeometry x="45" y="80" width="10" height="710" as="geometry" />
        </mxCell>
        <mxCell id="p_a_ilSG1iNqK-UMnlgY-10" value="登录" style="verticalAlign=bottom;endArrow=block;shadow=0;strokeWidth=1;dashed=1;" edge="1" parent="p_a_ilSG1iNqK-UMnlgY-21">
          <mxGeometry relative="1" as="geometry">
            <mxPoint x="-130" y="130.17" as="sourcePoint" />
            <mxPoint x="40" y="130" as="targetPoint" />
          </mxGeometry>
        </mxCell>
        <mxCell id="p_a_ilSG1iNqK-UMnlgY-23" value="读取db" style="verticalAlign=bottom;endArrow=block;shadow=0;strokeWidth=1;" edge="1" parent="1">
          <mxGeometry x="-0.2" y="10" relative="1" as="geometry">
            <mxPoint x="360" y="390.0000000000007" as="sourcePoint" />
            <mxPoint x="510" y="390" as="targetPoint" />
            <mxPoint as="offset" />
          </mxGeometry>
        </mxCell>
        <mxCell id="p_a_ilSG1iNqK-UMnlgY-25" value="" style="endArrow=classic;html=1;dashed=1;" edge="1" parent="1">
          <mxGeometry width="50" height="50" relative="1" as="geometry">
            <mxPoint x="510" y="450" as="sourcePoint" />
            <mxPoint x="360" y="451" as="targetPoint" />
          </mxGeometry>
        </mxCell>
        <mxCell id="p_a_ilSG1iNqK-UMnlgY-26" value="idaas登录请求" style="verticalAlign=bottom;endArrow=block;shadow=0;strokeWidth=1;" edge="1" parent="1">
          <mxGeometry relative="1" as="geometry">
            <mxPoint x="160" y="530" as="sourcePoint" />
            <mxPoint x="670" y="530" as="targetPoint" />
          </mxGeometry>
        </mxCell>
        <mxCell id="p_a_ilSG1iNqK-UMnlgY-29" value="重定向(id_token)" style="verticalAlign=bottom;endArrow=block;shadow=0;strokeWidth=1;" edge="1" parent="1">
          <mxGeometry x="-0.0525" y="10" relative="1" as="geometry">
            <mxPoint x="150" y="650.2100000000007" as="sourcePoint" />
            <mxPoint x="340" y="650" as="targetPoint" />
            <mxPoint as="offset" />
          </mxGeometry>
        </mxCell>
        <mxCell id="p_a_ilSG1iNqK-UMnlgY-31" value="登录返回" style="text;html=1;strokeColor=none;fillColor=none;align=center;verticalAlign=middle;whiteSpace=wrap;rounded=0;" vertex="1" parent="1">
          <mxGeometry x="220" y="780" width="70" height="20" as="geometry" />
        </mxCell>
        <mxCell id="p_a_ilSG1iNqK-UMnlgY-32" value="获取pub key" style="verticalAlign=bottom;endArrow=block;shadow=0;strokeWidth=1;" edge="1" parent="1">
          <mxGeometry relative="1" as="geometry">
            <mxPoint x="358" y="680.0000000000007" as="sourcePoint" />
            <mxPoint x="518" y="680" as="targetPoint" />
          </mxGeometry>
        </mxCell>
        <mxCell id="p_a_ilSG1iNqK-UMnlgY-33" value="" style="endArrow=classic;html=1;dashed=1;" edge="1" parent="1">
          <mxGeometry width="50" height="50" relative="1" as="geometry">
            <mxPoint x="510" y="720" as="sourcePoint" />
            <mxPoint x="360" y="721" as="targetPoint" />
          </mxGeometry>
        </mxCell>
        <mxCell id="p_a_ilSG1iNqK-UMnlgY-34" value="根据pub key:&lt;br&gt;解析token" style="shape=note;whiteSpace=wrap;html=1;backgroundOutline=1;darkOpacity=0.05;" vertex="1" parent="1">
          <mxGeometry x="360" y="750" width="110" height="40" as="geometry" />
        </mxCell>
        <mxCell id="p_a_ilSG1iNqK-UMnlgY-39" value="判断登录类型" style="shape=tape;whiteSpace=wrap;html=1;" vertex="1" parent="1">
          <mxGeometry x="360" y="250" width="80" height="100" as="geometry" />
        </mxCell>
        <mxCell id="p_a_ilSG1iNqK-UMnlgY-40" value="&lt;span style=&quot;color: rgb(0 , 0 , 0) ; font-family: &amp;#34;helvetica&amp;#34; ; font-size: 11px ; font-style: normal ; font-weight: 400 ; letter-spacing: normal ; text-align: center ; text-indent: 0px ; text-transform: none ; word-spacing: 0px ; background-color: rgb(255 , 255 , 255) ; display: inline ; float: none&quot;&gt;生成idaas登录 url&lt;/span&gt;" style="text;whiteSpace=wrap;html=1;" vertex="1" parent="1">
          <mxGeometry x="380" y="420" width="130" height="30" as="geometry" />
        </mxCell>
        <mxCell id="p_a_ilSG1iNqK-UMnlgY-41" value="" style="endArrow=classic;html=1;dashed=1;exitX=-0.5;exitY=0.463;exitDx=0;exitDy=0;exitPerimeter=0;" edge="1" parent="1" source="p_a_ilSG1iNqK-UMnlgY-6">
          <mxGeometry width="50" height="50" relative="1" as="geometry">
            <mxPoint x="340" y="480" as="sourcePoint" />
            <mxPoint x="156" y="483" as="targetPoint" />
          </mxGeometry>
        </mxCell>
        <mxCell id="p_a_ilSG1iNqK-UMnlgY-42" value="&lt;div style=&quot;text-align: center&quot;&gt;&lt;font face=&quot;helvetica&quot;&gt;&lt;span style=&quot;font-size: 11px ; background-color: rgb(255 , 255 , 255)&quot;&gt;带重定向返回&lt;/span&gt;&lt;/font&gt;&lt;/div&gt;" style="text;whiteSpace=wrap;html=1;" vertex="1" parent="1">
          <mxGeometry x="210" y="460" width="90" height="30" as="geometry" />
        </mxCell>
        <mxCell id="p_a_ilSG1iNqK-UMnlgY-43" value="" style="endArrow=classic;html=1;dashed=1;entryX=1.2;entryY=0.597;entryDx=0;entryDy=0;entryPerimeter=0;" edge="1" parent="1">
          <mxGeometry width="50" height="50" relative="1" as="geometry">
            <mxPoint x="670" y="591" as="sourcePoint" />
            <mxPoint x="157" y="590.8699999999999" as="targetPoint" />
            <Array as="points">
              <mxPoint x="250" y="591" />
            </Array>
          </mxGeometry>
        </mxCell>
        <mxCell id="p_a_ilSG1iNqK-UMnlgY-44" value="&lt;span style=&quot;color: rgb(0 , 0 , 0) ; font-family: &amp;#34;helvetica&amp;#34; ; font-size: 11px ; font-style: normal ; font-weight: 400 ; letter-spacing: normal ; text-align: center ; text-indent: 0px ; text-transform: none ; word-spacing: 0px ; background-color: rgb(255 , 255 , 255) ; display: inline ; float: none&quot;&gt;带配置的：redirect_url&lt;br&gt;+token返回&lt;/span&gt;" style="text;whiteSpace=wrap;html=1;" vertex="1" parent="1">
          <mxGeometry x="370" y="550" width="150" height="30" as="geometry" />
        </mxCell>
        <mxCell id="p_a_ilSG1iNqK-UMnlgY-45" value="" style="endArrow=classic;html=1;dashed=1;exitX=-0.5;exitY=0.463;exitDx=0;exitDy=0;exitPerimeter=0;" edge="1" parent="1">
          <mxGeometry width="50" height="50" relative="1" as="geometry">
            <mxPoint x="346" y="801.0999999999999" as="sourcePoint" />
            <mxPoint x="160" y="800" as="targetPoint" />
          </mxGeometry>
        </mxCell>
      </root>
    </mxGraphModel>
  </diagram>
</mxfile>
